<?xml version="1.0" encoding="UTF-8"?>
<svg id="Layer_7" data-name="Layer 7" xmlns="http://www.w3.org/2000/svg" viewBox="0 0 476.7731 595.4025">
  <defs>
    <style>
      .cls-1 {
        fill: #231f20;
        stroke-linecap: round;
      }

      .cls-1, .cls-2, .cls-3, .cls-4 {
        stroke: #231f20;
        stroke-miterlimit: 10;
      }

      .cls-2 {
        fill: none;
      }

      .cls-2, .cls-3, .cls-4 {
        stroke-width: 4px;
      }

      .cls-3 {
        fill: #5fbb46;
      }

      .cls-5 {
        fill: #cb2026;
      }

      .cls-4 {
        fill: #00afcc;
      }
    </style>
  </defs>
  <g id="Layer_8" data-name="Layer 8">
    <rect class="cls-5" x="88.3865" y="291.7365" width="300" height="300" rx="25" ry="25"/>
  </g>
  <path class="cls-4" d="M238.4983,501.7365h105c11.0457,0,20-8.9543,20-20v-80c0-11.0457-8.9543-20-20-20h-105"/>
  <path class="cls-3" d="M238.4983,381.7365h-105c-11.0457,0-20,8.9543-20,20v80c0,11.0457,8.9543,20,20,20h105"/>
  <line class="cls-2" x1="188.2761" y1="476.9587" x2="288.7205" y2="476.9587"/>
  <polygon class="cls-1" points="188.7538 488.5057 188.7539 465.4117 168.7539 476.9587 188.7538 488.5057"/>
  <polygon class="cls-1" points="288.5078 465.4117 288.5077 488.5057 308.5077 476.9588 288.5078 465.4117"/>
</svg>